TITLE ""
FILE "P1Q_t_0910-0919.mp3" MP3
  TRACK 01 AUDIO
    TITLE "P1Q_t_0910-0919_01"
    INDEX 01 00:00:00
  TRACK 02 AUDIO
    TITLE "P1Q_t_0910-0919_02"
    INDEX 01 00:01:06
  TRACK 03 AUDIO
    TITLE "P1Q_t_0910-0919_03"
    INDEX 01 00:01:25
  TRACK 04 AUDIO
    TITLE "P1Q_t_0910-0919_04"
    INDEX 01 00:04:45
  TRACK 05 AUDIO
    TITLE "P1Q_t_0910-0919_05"
    INDEX 01 00:04:63
  TRACK 06 AUDIO
    TITLE "P1Q_t_0910-0919_06"
    INDEX 01 00:09:31
  TRACK 07 AUDIO
    TITLE "P1Q_t_0910-0919_07"
    INDEX 01 00:10:03
  TRACK 08 AUDIO
    TITLE "P1Q_t_0910-0919_08"
    INDEX 01 00:11:30
  TRACK 09 AUDIO
    TITLE "P1Q_t_0910-0919_09"
    INDEX 01 00:11:51
  TRACK 10 AUDIO
    TITLE "P1Q_t_0910-0919_10"
    INDEX 01 00:13:56
  TRACK 11 AUDIO
    TITLE "P1Q_t_0910-0919_11"
    INDEX 01 00:14:07
  TRACK 12 AUDIO
    TITLE "P1Q_t_0910-0919_12"
    INDEX 01 00:19:15
  TRACK 13 AUDIO
    TITLE "P1Q_t_0910-0919_13"
    INDEX 01 00:19:70
  TRACK 14 AUDIO
    TITLE "P1Q_t_0910-0919_14"
    INDEX 01 00:20:74
  TRACK 15 AUDIO
    TITLE "P1Q_t_0910-0919_15"
    INDEX 01 00:21:20
  TRACK 16 AUDIO
    TITLE "P1Q_t_0910-0919_16"
    INDEX 01 00:26:59
  TRACK 17 AUDIO
    TITLE "P1Q_t_0910-0919_17"
    INDEX 01 00:27:03
  TRACK 18 AUDIO
    TITLE "P1Q_t_0910-0919_18"
    INDEX 01 00:31:62
  TRACK 19 AUDIO
    TITLE "P1Q_t_0910-0919_19"
    INDEX 01 00:32:34
  TRACK 20 AUDIO
    TITLE "P1Q_t_0910-0919_20"
    INDEX 01 00:33:51
  TRACK 21 AUDIO
    TITLE "P1Q_t_0910-0919_21"
    INDEX 01 00:33:70
  TRACK 22 AUDIO
    TITLE "P1Q_t_0910-0919_22"
    INDEX 01 00:37:58
  TRACK 23 AUDIO
    TITLE "P1Q_t_0910-0919_23"
    INDEX 01 00:38:03
  TRACK 24 AUDIO
    TITLE "P1Q_t_0910-0919_24"
    INDEX 01 00:42:22
  TRACK 25 AUDIO
    TITLE "P1Q_t_0910-0919_25"
    INDEX 01 00:42:69
  TRACK 26 AUDIO
    TITLE "P1Q_t_0910-0919_26"
    INDEX 01 00:44:23
  TRACK 27 AUDIO
    TITLE "P1Q_t_0910-0919_27"
    INDEX 01 00:44:45
  TRACK 28 AUDIO
    TITLE "P1Q_t_0910-0919_28"
    INDEX 01 00:46:24
  TRACK 29 AUDIO
    TITLE "P1Q_t_0910-0919_29"
    INDEX 01 00:46:46
  TRACK 30 AUDIO
    TITLE "P1Q_t_0910-0919_30"
    INDEX 01 00:50:18
  TRACK 31 AUDIO
    TITLE "P1Q_t_0910-0919_31"
    INDEX 01 00:50:65
  TRACK 32 AUDIO
    TITLE "P1Q_t_0910-0919_32"
    INDEX 01 00:51:72
  TRACK 33 AUDIO
    TITLE "P1Q_t_0910-0919_33"
    INDEX 01 00:52:23
  TRACK 34 AUDIO
    TITLE "P1Q_t_0910-0919_34"
    INDEX 01 00:56:46
  TRACK 35 AUDIO
    TITLE "P1Q_t_0910-0919_35"
    INDEX 01 00:56:68
  TRACK 36 AUDIO
    TITLE "P1Q_t_0910-0919_36"
    INDEX 01 01:00:63
  TRACK 37 AUDIO
    TITLE "P1Q_t_0910-0919_37"
    INDEX 01 01:01:37
  TRACK 38 AUDIO
    TITLE "P1Q_t_0910-0919_38"
    INDEX 01 01:02:58
  TRACK 39 AUDIO
    TITLE "P1Q_t_0910-0919_39"
    INDEX 01 01:03:05
  TRACK 40 AUDIO
    TITLE "P1Q_t_0910-0919_40"
    INDEX 01 01:06:11
  TRACK 41 AUDIO
    TITLE "P1Q_t_0910-0919_41"
    INDEX 01 01:06:31
  TRACK 42 AUDIO
    TITLE "P1Q_t_0910-0919_42"
    INDEX 01 01:10:46
  TRACK 43 AUDIO
    TITLE "P1Q_t_0910-0919_43"
    INDEX 01 01:11:16
  TRACK 44 AUDIO
    TITLE "P1Q_t_0910-0919_44"
    INDEX 01 01:12:25
  TRACK 45 AUDIO
    TITLE "P1Q_t_0910-0919_45"
    INDEX 01 01:12:45
  TRACK 46 AUDIO
    TITLE "P1Q_t_0910-0919_46"
    INDEX 01 01:15:10
  TRACK 47 AUDIO
    TITLE "P1Q_t_0910-0919_47"
    INDEX 01 01:15:30
  TRACK 48 AUDIO
    TITLE "P1Q_t_0910-0919_48"
    INDEX 01 01:20:23
  TRACK 49 AUDIO
    TITLE "P1Q_t_0910-0919_49"
    INDEX 01 01:20:70
  TRACK 50 AUDIO
    TITLE "P1Q_t_0910-0919_50"
    INDEX 01 01:22:08
  TRACK 51 AUDIO
    TITLE "P1Q_t_0910-0919_51"
    INDEX 01 01:22:30
  TRACK 52 AUDIO
    TITLE "P1Q_t_0910-0919_52"
    INDEX 01 01:23:61
  TRACK 53 AUDIO
    TITLE "P1Q_t_0910-0919_53"
    INDEX 01 01:24:05
  TRACK 54 AUDIO
    TITLE "P1Q_t_0910-0919_54"
    INDEX 01 01:29:00
  TRACK 55 AUDIO
    TITLE "P1Q_t_0910-0919_55"
    INDEX 01 01:29:45
  TRACK 56 AUDIO
    TITLE "P1Q_t_0910-0919_56"
    INDEX 01 01:30:63
  TRACK 57 AUDIO
    TITLE "P1Q_t_0910-0919_57"
    INDEX 01 01:31:09
  TRACK 58 AUDIO
    TITLE "P1Q_t_0910-0919_58"
    INDEX 01 01:32:65
  TRACK 59 AUDIO
    TITLE "P1Q_t_0910-0919_59"
    INDEX 01 01:33:14
  TRACK 60 AUDIO
    TITLE "P1Q_t_0910-0919_60"
    INDEX 01 01:36:63
